<svg viewBox="0 0 177 177" fill="none" xmlns="http://www.w3.org/2000/svg">
<path d="M88.4491 172.778C135.022 172.778 172.777 135.023 172.777 88.45C172.777 41.8769 135.022 4.12233 88.4491 4.12233C41.876 4.12233 4.12146 41.8769 4.12146 88.45C4.12146 135.023 41.8769 172.778 88.4491 172.778ZM88.4491 8.45069C132.561 8.45069 168.448 44.3388 168.448 88.45C168.448 132.561 132.561 168.449 88.4491 168.449C44.3371 168.449 8.44982 132.561 8.44982 88.45C8.44982 44.3388 44.338 8.45069 88.4491 8.45069Z" fill="#D9FF3D"/>
<path d="M88.4491 165.85C131.196 165.85 165.849 131.197 165.849 88.45C165.849 45.7031 131.196 11.0503 88.4491 11.0503C45.7023 11.0503 11.0494 45.7031 11.0494 88.45C11.0494 131.197 45.7023 165.85 88.4491 165.85ZM88.4491 12.7816C130.173 12.7816 164.118 46.7264 164.118 88.45C164.118 130.174 130.173 164.118 88.4491 164.118C46.7255 164.118 12.7808 130.174 12.7808 88.45C12.7808 46.7264 46.7255 12.7816 88.4491 12.7816Z" fill="#D9FF3D"/>
<path d="M88.4491 176.9C137.22 176.9 176.898 137.222 176.898 88.45C176.898 39.6781 137.22 0 88.4491 0C39.6781 0 0 39.6781 0 88.45C0 137.222 39.6781 176.9 88.4491 176.9ZM88.4491 1.73134C136.265 1.73134 175.167 40.6329 175.167 88.45C175.167 136.267 136.266 175.169 88.4491 175.169C40.6329 175.169 1.73134 136.266 1.73134 88.45C1.73134 40.6338 40.6329 1.73134 88.4491 1.73134Z" fill="#D9FF3D"/>
<path d="M138 73.6133C137.971 73.7229 137.925 73.83 137.917 73.9409C137.798 75.4122 137.041 76.4761 135.812 77.2336C135.024 77.7207 134.153 78.0135 133.251 78.1817C129.448 78.8893 125.647 78.9752 121.87 78.0147C121.067 77.8104 120.29 77.4977 119.51 77.2074C118.998 77.0168 118.765 76.5858 118.731 76.0663C118.691 75.4633 118.694 74.8566 118.682 74.2524C118.628 71.179 118.575 68.1043 118.521 65.0309C118.517 64.854 118.506 64.6771 118.426 64.4802C118.362 64.5836 118.288 64.682 118.235 64.7904C117.761 65.7908 117.496 66.8535 117.401 67.9498C117.326 68.8119 117.291 69.6802 117.295 70.5448C117.353 86.5709 117.424 102.597 117.485 118.624C117.514 126.13 117.524 133.636 117.559 141.144C117.562 141.843 117.343 142.357 116.785 142.784C115.584 143.706 114.276 144.438 112.902 145.059C110.314 146.229 107.605 147.015 104.835 147.609C101.827 148.255 98.7831 148.655 95.7172 148.905C91.4901 149.25 87.2569 149.314 83.0211 149.153C79.26 149.011 75.5201 148.651 71.8263 147.897C69.0655 147.334 66.3671 146.573 63.8107 145.363C62.535 144.76 61.3178 144.061 60.2415 143.141C59.8827 142.834 59.5588 142.484 59.2274 142.145C58.9271 141.838 58.7988 141.459 58.8163 141.029C58.8225 140.882 58.8175 140.735 58.8175 140.588C58.8175 117.252 58.8163 93.915 58.82 70.5785C58.82 69.0212 58.7664 67.4714 58.4064 65.9503C58.283 65.427 58.0962 64.92 57.9292 64.408C57.8807 64.2597 57.7972 64.1227 57.6489 63.9869C57.639 64.1214 57.6215 64.256 57.619 64.3905C57.5555 68.1018 57.4932 71.8143 57.4297 75.5256C57.4272 75.6564 57.4209 75.7872 57.4197 75.918C57.4147 76.6854 57.0622 77.2598 56.433 77.6771C55.9496 77.9973 55.409 78.1829 54.8508 78.3174C53.7819 78.5741 52.6906 78.7099 51.5955 78.7086C49.6994 78.7061 47.7995 78.7111 45.9084 78.5978C43.935 78.4794 42.0439 77.9487 40.2786 77.038C39.8313 76.8075 39.414 76.5098 39.0128 76.2058C38.6316 75.9168 38.3426 75.5393 38.1794 75.0758C38.1433 74.9737 38.061 74.8865 38 74.793C38 74.5314 38 74.2698 38 74.0082C38.0598 73.6731 38.1433 73.3404 38.1757 73.0028C38.4884 69.7326 38.7537 66.4573 39.1113 63.1921C39.4912 59.7162 39.997 56.2554 40.6611 52.8194C41.0921 50.5894 41.6004 48.3781 42.3093 46.2154C43.0032 44.0975 44.1879 42.311 45.8087 40.7974C46.7319 39.9353 47.731 39.1716 48.7937 38.4914C51.4822 36.7696 54.3911 35.5351 57.4222 34.5658C57.9504 34.3964 58.4948 34.2643 59.0044 34.0513C61.0986 33.1792 63.1828 32.2822 65.2708 31.3952C68.0963 30.193 70.9218 28.9921 73.7473 27.7886C73.9117 27.7188 74.0899 27.6603 74.2319 27.5569C74.729 27.1956 75.2709 27.1856 75.8228 27.3551C76.2589 27.4884 76.6899 27.6478 77.1073 27.8322C80.0262 29.1166 83.0709 29.838 86.2602 29.9862C89.4084 30.1282 92.5055 29.8467 95.5129 28.8999C97.3293 28.328 99.1083 27.6366 100.905 27C101.068 27 101.232 27 101.396 27C101.772 27.1445 102.197 27.2242 102.427 27.5992C102.585 27.8559 102.815 27.9755 103.075 28.0839C106.207 29.3944 109.344 30.6963 112.467 32.0293C115.096 33.1518 117.691 34.354 120.389 35.3071C121.02 35.5301 121.64 35.7842 122.26 36.0384C124.35 36.8955 126.393 37.841 128.291 39.0781C131.202 40.973 133.177 43.5556 134.183 46.8919C135.062 49.8096 135.669 52.7858 136.125 55.7907C136.506 58.311 136.854 60.8375 137.129 63.3715C137.441 66.2306 137.655 69.0997 137.915 71.9651C137.927 72.0909 137.97 72.213 137.999 72.3363C138 72.7636 138 73.1884 138 73.6133ZM59.2946 63.4686C59.5675 64.1302 59.8054 64.8141 59.9786 65.508C60.3922 67.1687 60.4657 68.868 60.4657 70.5722C60.4645 93.829 60.4645 117.087 60.4645 140.344C60.4645 140.491 60.4744 140.639 60.462 140.785C60.4433 140.998 60.5118 141.167 60.6688 141.307C60.974 141.578 61.263 141.87 61.5832 142.123C62.7343 143.031 64.0237 143.701 65.368 144.269C68.4912 145.59 71.7727 146.313 75.1102 146.807C78.5611 147.318 82.0369 147.532 85.5215 147.586C90.0064 147.656 94.4801 147.48 98.9364 146.932C101.632 146.6 104.301 146.128 106.924 145.424C109.153 144.826 111.337 144.091 113.378 142.997C114.168 142.574 114.904 142.052 115.664 141.575C115.845 141.461 115.943 141.312 115.916 141.086C115.899 140.958 115.913 140.825 115.913 140.694C115.835 121.788 115.755 102.881 115.679 83.9734C115.66 79.3116 115.651 74.651 115.645 69.9892C115.643 68.5951 115.762 67.2123 116.119 65.8593C116.42 64.7107 116.875 63.6306 117.614 62.6887C117.641 62.6539 120.068 60.1024 120.125 63.0426C120.177 65.7734 120.216 68.5042 120.262 71.235C120.286 72.6253 120.323 74.0144 120.337 75.4047C120.339 75.6913 120.413 75.862 120.702 75.9442C121.142 76.0688 121.569 76.2382 122.009 76.3615C124.529 77.0679 127.1 77.1701 129.693 76.9981C130.193 76.9645 130.692 76.9072 131.238 76.8574C131.189 75.9778 131.144 75.1531 131.099 74.3383C131.856 74.1539 132.574 74.002 133.281 73.8014C134.208 73.5385 135.123 73.2395 136.043 72.9517C136.186 72.9069 136.377 72.8907 136.316 72.5979C134.567 73.0826 132.857 73.6581 131.062 73.9683C131.045 73.8624 131.027 73.8001 131.025 73.7378C131.022 73.6756 131.036 73.6133 131.045 73.5385C131.167 73.5061 131.275 73.4762 131.384 73.4463C132.881 73.0439 134.38 72.6428 135.877 72.2391C135.987 72.2092 136.105 72.1843 136.199 72.1245C136.257 72.0884 136.277 71.9912 136.365 71.8255C134.524 72.3463 132.783 72.8209 130.971 73.1137C130.928 72.6889 130.87 72.2927 130.956 71.8903C131.524 71.7732 132.071 71.6798 132.608 71.5452C133.717 71.2674 134.821 70.9684 135.926 70.6794C136.068 70.642 136.214 70.6133 136.154 70.3467C134.431 70.8202 132.74 71.3571 130.945 71.6162C130.945 71.4555 130.945 71.321 130.945 71.1715C132.71 70.8451 134.427 70.4053 136.14 69.8409C136.108 69.4834 136.08 69.1595 136.048 68.8368C135.84 66.7551 135.678 64.6671 135.41 62.5928C135.04 59.725 134.621 56.8621 134.162 54.0067C133.798 51.748 133.272 49.5218 132.607 47.3279C131.726 44.4202 130.018 42.1478 127.472 40.5046C126.785 40.0623 126.083 39.6412 125.361 39.26C122.68 37.8448 119.834 36.8257 116.994 35.7904C116.84 35.7344 116.641 35.7468 116.472 35.783C113.885 36.3349 111.306 36.9316 108.711 37.4461C105.2 38.1425 101.662 38.687 98.1029 39.0756C97.4314 39.1491 96.806 39.2887 96.2006 39.6313C95.2176 40.1869 94.145 40.5519 93.0511 40.8372C90.5707 41.485 88.0567 41.6358 85.5115 41.3505C83.6104 41.1362 81.7828 40.6641 80.091 39.7559C79.5304 39.4544 78.9672 39.3024 78.3356 39.2289C75.9337 38.9486 73.533 38.6483 71.1423 38.2846C67.3114 37.7028 63.5279 36.8855 59.8004 35.8191C59.4853 35.7294 59.2037 35.7331 58.8935 35.8228C56.8018 36.4283 54.7686 37.1858 52.804 38.1263C51.0897 38.9473 49.459 39.9078 47.9615 41.0876C45.886 42.7221 44.3661 44.7329 43.6747 47.3179C43.6199 47.5235 43.5488 47.7241 43.489 47.9271C42.5921 51.0093 42.0389 54.1637 41.5468 57.3293C40.9688 61.0455 40.5502 64.7805 40.1814 68.5229C40.1415 68.9265 40.1179 69.3314 40.083 69.7998C41.6589 70.2782 43.215 70.7516 44.7959 71.2313C44.7822 71.3446 44.7672 71.468 44.7498 71.6137C43.139 71.2911 41.6228 70.7429 40.0892 70.2496C40.0045 70.4763 40.1204 70.5274 40.2499 70.5697C40.747 70.7329 41.2391 70.9086 41.7399 71.0556C42.7403 71.3484 43.7457 71.6237 44.7573 71.909C44.7573 72.3027 44.7573 72.6889 44.7573 73.1112C43.0941 72.7686 41.5244 72.2429 39.9111 71.7321C39.9933 72.0273 39.9896 72.0386 40.2487 72.122C41.6004 72.5581 42.9546 72.9879 44.3075 73.4202C44.4296 73.4588 44.5505 73.5024 44.6913 73.5497C44.6726 73.6905 44.6551 73.8114 44.6352 73.9646C43.0019 73.5784 41.4634 73.0003 39.9024 72.4871C39.7877 72.8135 40.0269 72.8296 40.1752 72.8795C41.507 73.3242 42.8412 73.759 44.1755 74.1963C44.3113 74.2412 44.4483 74.2823 44.6028 74.3309C44.5579 75.1456 44.5143 75.9379 44.472 76.7216C44.6302 76.7664 44.7224 76.8025 44.8183 76.8187C45.0762 76.8623 45.3341 76.9147 45.5945 76.9334C48.1583 77.1202 50.7222 77.2274 53.2849 76.9371C53.9825 76.8574 54.6752 76.7303 55.323 76.4325C55.6345 76.2905 55.7927 76.0887 55.7902 75.7149C55.7852 74.8815 55.84 74.0481 55.8525 73.2134C55.9123 69.2068 55.9646 66.3514 56.0207 62.3449C55.9932 61.9637 57.4284 60.3416 59.2946 63.4686ZM100.991 28.6582C100.379 28.8936 99.8259 29.0917 99.2852 29.3172C95.8256 30.7611 92.2339 31.5833 88.4753 31.6419C86.1456 31.678 83.8371 31.5123 81.556 31.0227C79.6948 30.6241 77.9158 29.98 76.1704 29.2375C75.9661 29.1503 75.7543 29.083 75.4752 28.9796C75.5164 29.4804 75.54 29.9027 75.5861 30.3226C75.7967 32.266 76.4457 34.0413 77.6492 35.5949C79.1068 37.4773 81.044 38.6346 83.3101 39.2613C86.0223 40.0112 88.7668 40.0362 91.52 39.5079C93.4847 39.1305 95.3185 38.4179 96.9468 37.2356C99.2142 35.5886 100.612 33.4047 100.965 30.6004C101.039 29.9862 101.113 29.367 100.991 28.6582ZM66.2363 33.847C66.2201 33.8831 66.2039 33.918 66.1877 33.9541C66.4718 34.1858 66.7633 34.4101 67.0399 34.6518C67.4011 34.967 67.8496 34.9308 68.2508 34.8748C68.4327 34.8499 68.5722 34.5097 68.7267 34.3092C68.7765 34.2444 68.8226 34.1759 68.8562 34.1011C69.0132 33.7523 69.2549 33.6302 69.6424 33.7286C70.0647 33.8358 70.4995 33.8868 70.9405 33.9641C71.1448 33.5231 71.3367 33.1095 71.5285 32.6971C71.8063 32.1016 71.683 32.1552 72.347 32.1714C72.641 32.1788 72.935 32.1913 73.229 32.1913C73.528 32.1913 73.9429 31.8524 73.9255 31.5721C73.9005 31.1398 73.8146 30.71 73.7398 30.1644C73.4969 30.4634 73.3175 30.6689 73.1568 30.8869C73.0384 31.0476 72.8989 31.1137 72.6983 31.1025C72.3071 31.0813 71.9135 31.0975 71.5235 31.0638C71.2482 31.0402 71.1074 31.1461 70.9941 31.3828C70.7561 31.8811 70.4932 32.3682 70.2341 32.874C69.6174 32.7756 69.0294 32.6821 68.4377 32.5887C68.1947 33.0808 67.9717 33.5318 67.7425 33.994C67.2205 33.9429 66.7284 33.8943 66.2363 33.847ZM108.381 33.9952C108.135 33.5006 107.912 33.0497 107.681 32.5837C107.075 32.6821 106.5 32.7768 105.89 32.8765C105.722 32.5488 105.563 32.2299 105.395 31.9147C105.249 31.6431 105.154 31.2756 104.925 31.1373C104.696 30.9991 104.327 31.0888 104.019 31.0888C103.583 31.0875 103.12 31.2133 102.771 30.7063C102.685 31.2345 102.613 31.678 102.534 32.1664C103.049 32.1664 103.502 32.1851 103.953 32.1601C104.239 32.1452 104.402 32.2237 104.514 32.499C104.716 32.9948 104.956 33.4745 105.184 33.9678C105.682 33.8781 106.147 33.8009 106.611 33.7112C106.866 33.6614 107.05 33.7236 107.182 33.9628C107.323 34.2207 107.481 34.4699 107.648 34.7103C107.707 34.795 107.809 34.8847 107.904 34.9022C108.589 35.0268 109.544 34.5197 109.893 33.8432C109.39 33.8931 108.905 33.9417 108.381 33.9952ZM68.1785 35.2846C68.7329 35.6123 69.2574 35.783 69.7869 35.9312C69.8977 35.9624 70.0448 35.9088 70.1606 35.8627C71.7241 35.2348 73.0372 34.2157 74.3777 33.1992C74.2768 32.8665 74.1858 32.565 74.0837 32.2249C72.1938 33.4334 70.3923 34.6729 68.1785 35.2846ZM107.845 35.3507C106.912 34.9258 105.975 34.5484 105.086 34.0812C104.179 33.6053 103.317 33.0422 102.415 32.504C102.305 32.8291 102.203 33.1344 102.09 33.4683C102.552 33.8046 102.982 34.1584 103.452 34.4475C104.23 34.9258 105.031 35.3656 105.829 35.8104C105.966 35.8864 106.152 35.9636 106.293 35.9325C106.846 35.8116 107.372 35.6023 107.845 35.3507ZM131.562 75.9105C132.087 75.9977 132.541 76.0563 132.987 76.1522C133.349 76.2307 133.581 76.1236 133.827 75.837C134.52 75.0248 134.316 75.0447 135.325 75.3263C135.427 75.3549 135.601 75.3263 135.665 75.2552C136.062 74.8292 136.271 74.3159 136.323 73.6232C136.064 73.9434 135.872 74.1801 135.658 74.4442C135.112 74.291 134.569 74.1402 134.032 73.9895C133.694 74.4405 133.384 74.8553 133.074 75.2702C132.548 75.0833 132.06 74.9089 131.507 74.7133C131.527 75.1394 131.543 75.5056 131.562 75.9105ZM41.6639 73.8064C41.2404 73.9098 40.8442 73.9995 40.4518 74.1041C40.2126 74.1677 39.9821 74.2362 39.7815 73.8824C39.7616 74.134 39.7479 74.276 39.7404 74.4181C39.7379 74.4666 39.7429 74.5165 39.7566 74.5626C39.8563 74.9089 40.2263 75.1344 40.5851 75.0223C41.0547 74.8753 41.4036 74.9724 41.6652 75.4022C41.7748 75.5816 41.9218 75.7411 42.0738 75.8881C42.1585 75.9691 42.2906 76.0588 42.3952 76.0513C42.9621 76.009 43.5264 75.9379 44.097 75.8769C44.1805 75.467 44.2178 75.0945 44.1556 74.6896C43.6161 74.8504 43.1215 74.9986 42.6182 75.1493C42.2956 74.6971 41.9941 74.2723 41.6639 73.8064ZM73.7074 28.8151C73.6838 28.794 73.6589 28.7728 73.6352 28.7516C73.5467 28.8189 73.4558 28.8824 73.3698 28.9534C71.9994 30.0784 70.5045 31.0065 68.8799 31.7104C67.8795 32.144 66.8455 32.5015 65.8277 32.8952C65.7081 32.9413 65.5947 33.0011 65.4776 33.0559C65.4938 33.0995 65.51 33.1431 65.5262 33.1867C65.657 33.1593 65.7915 33.1443 65.9174 33.102C67.5232 32.5538 69.088 31.9072 70.6116 31.1548C71.7391 30.5967 72.6809 29.7981 73.6053 28.9684C73.6489 28.9273 73.6738 28.8662 73.7074 28.8151ZM110.602 33.1655C110.617 33.1157 110.631 33.0646 110.646 33.0148C107.859 32.1253 105.221 30.943 102.896 29.1254C102.908 29.2337 102.934 29.3309 102.996 29.3795C103.616 29.8554 104.204 30.3874 104.873 30.7823C106.577 31.7901 108.426 32.4866 110.292 33.1331C110.388 33.1655 110.499 33.1556 110.602 33.1655ZM70.6863 36.1766C71.004 36.4532 71.2557 36.3797 71.5173 36.1916C72.4417 35.5263 73.3711 34.8661 74.2979 34.2033C74.3901 34.1373 74.496 34.0775 74.5608 33.989C74.6032 33.9304 74.5845 33.8258 74.6007 33.6514C73.3138 34.5957 72.1128 35.5176 70.6863 36.1766ZM105.368 36.2389C104.191 35.479 103.036 34.7352 101.885 33.9915C101.728 34.1634 101.873 34.2369 101.972 34.3092C102.876 34.9545 103.783 35.5924 104.685 36.2389C104.93 36.4158 105.155 36.4021 105.368 36.2389ZM75.2161 35.1302C74.4213 35.7057 73.6427 36.2701 72.8366 36.8531C73.1169 36.9877 73.3001 36.9391 73.4869 36.8008C74.0351 36.3947 74.5932 36.001 75.1451 35.5986C75.2311 35.5363 75.3033 35.4541 75.388 35.3743C75.3257 35.2859 75.2809 35.2224 75.2161 35.1302ZM101.156 35.3096C101.089 35.4167 101.041 35.4939 100.972 35.6011C101.504 35.9835 102.02 36.3498 102.532 36.7223C102.696 36.8419 102.852 36.8332 103.086 36.7111C102.433 36.2377 101.823 35.7929 101.156 35.3096ZM74.0089 37.03C74.643 37.182 74.648 37.187 74.9906 36.8382C75.2174 36.6077 75.4291 36.3623 75.6372 36.1144C75.682 36.0608 75.6783 35.9673 75.7256 35.7817C75.1102 36.2277 74.5932 36.604 74.0089 37.03ZM68.3318 30.8496C68.1673 30.801 67.968 30.7412 67.8073 30.6938C67.7126 30.8408 67.603 31.014 67.507 31.1623C67.6129 31.2831 67.7437 31.4338 67.8571 31.5634C68.0178 31.5036 68.1972 31.4363 68.333 31.3853C68.3318 31.1984 68.3318 31.009 68.3318 30.8496ZM101.903 36.8793C101.473 36.5628 101.085 36.2626 100.591 35.9374C100.606 36.1268 100.586 36.2165 100.622 36.2626C100.763 36.442 100.928 36.6027 101.073 36.7796C101.3 37.0587 101.558 37.0587 101.903 36.8793ZM107.833 30.8757C107.805 31.0589 107.779 31.2345 107.758 31.3753C107.941 31.4463 108.137 31.521 108.366 31.6083C108.231 31.3205 108.487 31.2569 108.646 31.1884C108.514 31.004 108.402 30.8471 108.291 30.6913C108.164 30.7424 107.997 30.8097 107.833 30.8757Z" fill="#D9FF3D"/>
<path d="M112.909 55.4643C112.911 58.7208 110.274 61.3595 107.017 61.3607C103.758 61.362 101.118 58.7233 101.119 55.4643C101.119 52.2053 103.76 49.5666 107.018 49.5704C110.274 49.5729 112.908 52.2077 112.909 55.4643ZM112.598 55.4668C112.598 52.3846 110.1 49.8831 107.018 49.8818C103.936 49.8806 101.433 52.3784 101.43 55.4606C101.428 58.5452 103.927 61.048 107.01 61.0505C110.095 61.0518 112.598 58.5502 112.598 55.4668Z" fill="#D9FF3D"/>
<path d="M107.243 56.7824C106.927 56.7848 106.613 56.7674 106.299 56.73C106.262 56.725 106.236 56.7126 106.213 56.679C105.824 56.0922 105.435 55.5066 105.042 54.9224C105.012 54.8788 105.006 54.8376 105.023 54.7915C105.082 54.6383 105.132 54.4826 105.202 54.3343C105.319 54.0864 105.457 53.8485 105.57 53.5993C105.644 53.4374 105.745 53.2941 105.831 53.1408C105.841 53.1247 105.864 53.1085 105.883 53.106C106.451 53.03 107.02 53.0088 107.592 53.0561C107.779 53.0711 107.966 53.0823 108.153 53.0972C108.17 53.0985 108.193 53.1134 108.203 53.1296C108.29 53.2667 108.376 53.4037 108.459 53.542C108.676 53.902 108.862 54.2783 109.045 54.6558C109.088 54.7455 109.093 54.8302 109.065 54.9224C109.007 55.113 108.919 55.2911 108.826 55.4643C108.674 55.7458 108.534 56.0336 108.342 56.2915C108.25 56.4148 108.157 56.5382 108.063 56.6603C108.017 56.7213 107.959 56.75 107.879 56.7525C107.668 56.7587 107.456 56.7724 107.243 56.7824Z" fill="#D9FF3D"/>
<path d="M107.151 57.0838C107.382 57.0764 107.722 57.0652 108.062 57.0515C108.102 57.0502 108.128 57.0589 108.153 57.0913C108.468 57.4975 108.762 57.9173 109.047 58.3446C109.11 58.438 109.115 58.5265 109.056 58.6237C108.9 58.8828 108.751 59.1457 108.591 59.4023C108.52 59.5169 108.438 59.6265 108.352 59.7312C108.32 59.7711 108.269 59.8072 108.22 59.8196C108.066 59.8608 107.909 59.8994 107.75 59.9218C107.299 59.9853 106.846 60.004 106.391 59.9878C106.217 59.9816 106.044 59.9542 105.871 59.933C105.788 59.923 105.732 59.8757 105.687 59.8034C105.449 59.416 105.231 59.0198 105.04 58.6075C105.027 58.5801 105.027 58.5576 105.046 58.5352C105.136 58.4206 105.224 58.306 105.314 58.1926C105.523 57.9285 105.732 57.6644 105.94 57.399C106.025 57.2906 106.107 57.181 106.189 57.0714C106.208 57.0452 106.228 57.0377 106.259 57.039C106.521 57.0539 106.781 57.0664 107.151 57.0838Z" fill="#D9FF3D"/>
<path d="M102.303 53.8958C102.325 53.8186 102.341 53.7376 102.372 53.6616C102.573 53.162 102.851 52.7061 103.185 52.2837C103.287 52.1554 103.389 52.0271 103.492 51.9C103.507 51.8826 103.53 51.8651 103.552 51.8602C103.972 51.7493 104.397 51.6808 104.833 51.6995C104.884 51.7019 104.919 51.7181 104.947 51.763C105.153 52.0757 105.344 52.3971 105.493 52.7422C105.559 52.8954 105.559 53.0337 105.471 53.1807C105.326 53.4224 105.193 53.6716 105.056 53.9195C104.925 54.1562 104.832 54.4091 104.742 54.6645C104.724 54.7156 104.702 54.7355 104.646 54.7392C104.258 54.7691 103.875 54.8302 103.496 54.9174C103.288 54.966 103.08 55.0108 102.872 55.0594C102.833 55.0681 102.808 55.0681 102.788 55.0245C102.646 54.7143 102.499 54.4066 102.359 54.0952C102.331 54.0354 102.322 53.9668 102.303 53.8958Z" fill="#D9FF3D"/>
<path d="M109.554 51.6409C109.668 51.6409 109.782 51.6359 109.896 51.6421C110.139 51.6546 110.367 51.7119 110.532 51.9075C110.653 52.0495 110.775 52.1928 110.885 52.3448C111.095 52.6363 111.282 52.9428 111.434 53.2679C111.522 53.4548 111.584 53.6541 111.652 53.8497C111.665 53.8846 111.659 53.9332 111.644 53.9681C111.604 54.0578 111.564 54.15 111.507 54.2272C111.366 54.4153 111.214 54.5972 111.068 54.7803C111.033 54.8239 111 54.8688 110.965 54.9136C110.934 54.9548 110.896 54.9734 110.84 54.9647C110.602 54.9298 110.364 54.9024 110.126 54.8651C109.907 54.8314 109.69 54.7903 109.472 54.7529C109.439 54.7467 109.421 54.7305 109.407 54.6969C109.302 54.4203 109.162 54.1612 109.012 53.907C108.848 53.6267 108.685 53.3464 108.517 53.0698C108.459 52.9752 108.457 52.8855 108.495 52.7858C108.647 52.3996 108.838 52.0346 109.066 51.6882C109.09 51.6521 109.118 51.6347 109.162 51.6347C109.293 51.6359 109.424 51.6347 109.556 51.6347C109.554 51.6384 109.554 51.6409 109.554 51.6409Z" fill="#D9FF3D"/>
<path d="M111.158 57.6108C111.351 57.7068 111.543 57.8002 111.732 57.8974C111.742 57.9023 111.752 57.9298 111.748 57.9397C111.72 58.0057 111.695 58.0743 111.655 58.1328C111.498 58.3583 111.34 58.5826 111.176 58.8031C110.789 59.3251 110.294 59.7287 109.743 60.0601C109.523 60.1921 109.282 60.2868 109.05 60.399C108.989 60.4276 108.941 60.4201 108.893 60.3678C108.791 60.2582 108.684 60.1523 108.576 60.0476C108.548 60.0202 108.547 59.9966 108.568 59.9667C108.585 59.943 108.6 59.9168 108.619 59.8932C108.929 59.5119 109.176 59.0921 109.374 58.6436C109.416 58.5464 109.471 58.5003 109.579 58.4742C109.994 58.3733 110.384 58.2076 110.734 57.9597C110.858 57.8724 110.97 57.7703 111.087 57.6744C111.113 57.6557 111.134 57.6332 111.158 57.6108Z" fill="#D9FF3D"/>
<path d="M102.342 58.0431C102.406 58.007 102.469 57.9696 102.533 57.9347C102.634 57.8812 102.736 57.8313 102.836 57.7765C102.884 57.7491 102.918 57.7541 102.958 57.7927C103.087 57.916 103.224 58.0332 103.378 58.1278C103.743 58.3533 104.134 58.5078 104.556 58.585C104.692 58.61 104.696 58.61 104.753 58.7345C104.959 59.1793 105.209 59.6004 105.461 60.0202C105.468 60.0327 105.474 60.0439 105.484 60.0613C105.468 60.075 105.454 60.0912 105.437 60.1037C105.312 60.1984 105.189 60.2931 105.091 60.4164C105.082 60.4276 105.053 60.4326 105.038 60.4264C104.952 60.394 104.866 60.3628 104.783 60.323C104.402 60.1448 104.067 59.8944 103.73 59.6465C103.436 59.4297 103.162 59.193 102.929 58.9102C102.74 58.6797 102.565 58.4393 102.408 58.1839C102.386 58.1478 102.369 58.1104 102.35 58.0718C102.347 58.0655 102.346 58.0556 102.342 58.0431Z" fill="#D9FF3D"/>
<path d="M112.395 55.4082C112.39 55.7957 112.345 56.1806 112.293 56.5643C112.245 56.9107 112.133 57.2371 111.987 57.5523C111.943 57.6507 111.956 57.6482 111.854 57.6009C111.686 57.5236 111.52 57.4389 111.355 57.3554C111.343 57.3492 111.332 57.3268 111.333 57.3131C111.346 57.201 111.367 57.0901 111.373 56.9792C111.386 56.735 111.406 56.4908 111.388 56.2454C111.362 55.8754 111.306 55.5116 111.205 55.1541C111.2 55.1379 111.21 55.1117 111.223 55.098C111.287 55.0283 111.357 54.9635 111.421 54.8925C111.534 54.7666 111.62 54.6209 111.7 54.4726C111.755 54.3717 111.814 54.272 111.87 54.1711C111.884 54.145 111.902 54.1375 111.93 54.1412C111.995 54.15 112.061 54.1549 112.126 54.1599C112.203 54.1662 112.253 54.2073 112.269 54.2795C112.3 54.4166 112.336 54.5536 112.351 54.6919C112.377 54.9286 112.39 55.1678 112.407 55.4057C112.404 55.4082 112.399 55.4082 112.395 55.4082Z" fill="#D9FF3D"/>
<path d="M102.07 54.1985C102.107 54.2858 102.143 54.3705 102.179 54.4539C102.251 54.6196 102.321 54.7866 102.397 54.951C102.441 55.0445 102.493 55.1317 102.544 55.2214C102.574 55.2737 102.579 55.3285 102.57 55.3883C102.528 55.6736 102.502 55.9614 102.507 56.2504C102.512 56.5681 102.573 56.8758 102.653 57.1823C102.675 57.2695 102.692 57.3592 102.712 57.4464C102.72 57.48 102.71 57.4987 102.678 57.5149C102.532 57.5872 102.388 57.6619 102.244 57.7354C102.232 57.7416 102.219 57.7466 102.199 57.7566C102.167 57.6955 102.132 57.6382 102.104 57.5784C101.954 57.2495 101.863 56.9007 101.788 56.5481C101.728 56.2641 101.683 55.9776 101.673 55.686C101.66 55.2662 101.697 54.8514 101.782 54.439C101.792 54.3929 101.797 54.3468 101.808 54.3007C101.812 54.2845 101.828 54.2646 101.842 54.2596C101.913 54.2397 101.987 54.221 102.07 54.1985Z" fill="#D9FF3D"/>
<path d="M106.868 50.1223C106.872 50.212 106.877 50.2954 106.877 50.3789C106.877 50.3876 106.855 50.4013 106.841 50.4063C106.63 50.4848 106.419 50.5595 106.211 50.6405C105.949 50.7427 105.69 50.8523 105.456 51.008C105.315 51.1015 105.18 51.2074 105.048 51.3133C104.986 51.3643 104.921 51.3967 104.842 51.3955C104.481 51.3892 104.131 51.4677 103.779 51.5238C103.673 51.54 103.566 51.5512 103.46 51.5649C103.456 51.5599 103.452 51.5549 103.449 51.5487C103.465 51.5163 103.476 51.4789 103.5 51.454C103.558 51.3942 103.619 51.3357 103.685 51.2834C104.009 51.023 104.381 50.8436 104.753 50.6692C105.066 50.5222 105.385 50.3864 105.715 50.283C105.974 50.202 106.241 50.1497 106.513 50.1347C106.616 50.1297 106.719 50.126 106.821 50.1223C106.834 50.121 106.848 50.1223 106.868 50.1223Z" fill="#D9FF3D"/>
<path d="M110.266 51.383C110.142 51.3656 110.025 51.3481 109.908 51.3319C109.65 51.2958 109.391 51.2958 109.132 51.3095C109.126 51.3095 109.12 51.3095 109.113 51.3108C108.994 51.3294 108.9 51.2983 108.809 51.2061C108.618 51.0118 108.376 50.8847 108.125 50.7813C107.812 50.6505 107.493 50.5334 107.176 50.4113C107.16 50.405 107.145 50.3988 107.134 50.3951C107.134 50.3041 107.134 50.2169 107.134 50.1235C107.17 50.121 107.2 50.1185 107.23 50.1173C107.58 50.111 107.924 50.1596 108.264 50.2381C108.852 50.3751 109.407 50.5894 109.913 50.9233C110.037 51.0043 110.151 51.1002 110.267 51.1912C110.281 51.2024 110.289 51.231 110.288 51.2497C110.286 51.2933 110.274 51.3357 110.266 51.383Z" fill="#D9FF3D"/>
</svg>
